<svg xmlns="http://www.w3.org/2000/svg" xmlns:xlink="http://www.w3.org/1999/xlink" version="1.1" id="레이어_1" x="0px" y="0px" viewBox="0 0 900 900" style="enable-background:new 0 0 900 900;" xml:space="preserve">
<style type="text/css">
	.st0{fill:#4A0F1C;}
	.st1{fill:#FDAD00;}
</style>
<g>
	<path class="st0" d="M407.13,123.91c42.25-27.61,83.95-24.2,118.71,0.37l0.44,0.31c75.76,53.56,62.25,132.23,6.17,211.56   l-54.82,77.54c-37.81,53.48-68.31,55.97-119.56,19.74L140.15,279.38c-51.25-36.23-59.07-65.82-21.26-119.3l46-65.06   c57.65-81.55,134.47-110.79,200.87-63.85l2.67,1.89C396.06,52.59,411.25,84.04,407.13,123.91z M222.38,201.83l54.37,38.44   l34.34-48.58c20.79-29.41,13-54.31-2.16-65.02l-3.12-2.2c-16.04-11.34-41.22-9.76-62.02,19.65l-25.2,35.65   C211.34,190.02,211.68,194.27,222.38,201.83z M349.38,291.62l54.37,38.44c10.7,7.56,14.81,6.46,22.06-3.79l34.66-49.02   c20.79-29.41,13.89-53.68-2.16-65.02l-3.12-2.21c-16.04-11.34-41.22-9.76-62.02,19.65L349.38,291.62z"/>
</g>
<path class="st1" d="M900,530.75c0,0-197.77-30.63-294,63.25c0,0-208.61-35.65-328.19,63.6c-31.81,26.4-16.5-5.45-13.85-10.16  c0.28-0.5,0.58-0.98,0.91-1.46c5.51-7.99,64.99-97.39,17.7-166.67c-49.55-72.58-15.69-96.84-15.69-96.84S194.41,345.47,127.54,284  c0,0-27.14,80.26-26.95,126.67c0.19,47.62-3.81,56.01-3.81,56.01S8.17,613.42,74.86,800.39c0,0,13.34,26.03,53.36,22.09  c0,0,117,44.34,262.78,17.52c0,0,149.95,31.09,270,9l239,8V530.75z"/>
</svg>