<svg xmlns="http://www.w3.org/2000/svg" xmlns:xlink="http://www.w3.org/1999/xlink" version="1.1" id="레이어_1" x="0px" y="0px" viewBox="0 0 900 900" style="enable-background:new 0 0 900 900;" xml:space="preserve">
<style type="text/css">
	.st0{fill:#4A0F1C;}
	.st1{fill:#FDAD00;}
	.st2{font-family:'JalnanOTF-KSCpc-EUC-H';}
	.st3{font-size:150px;}
</style>
<g>
	<path class="st0" d="M291.5,133.16c27.26-13.18,51.8-7.94,70.59,9.36l0.24,0.22c40.95,37.69,26.86,83.46-12.61,126.34l-38.58,41.91   c-26.61,28.91-44.95,28.04-72.65,2.55L120.7,205.12c-27.7-25.5-30.08-43.7-3.47-72.61l32.37-35.17   c40.57-44.08,88.52-55.57,124.42-22.53l1.44,1.33C290.4,89.88,297.02,109.76,291.5,133.16z M175.59,165.31l29.39,27.05l24.17-26.26   c14.63-15.9,11.91-31.31,3.72-38.85l-1.69-1.55c-8.67-7.98-23.77-8.98-38.41,6.92l-17.74,19.27   C169.93,157.43,169.81,159.98,175.59,165.31z M244.24,228.5l29.39,27.05c5.78,5.32,8.32,4.98,13.42-0.56l24.39-26.5   c14.63-15.9,12.39-30.87,3.72-38.85l-1.69-1.55c-8.67-7.98-23.77-8.98-38.41,6.92L244.24,228.5z"/>
</g>
<path class="st1" d="M900,500c0,0-202.51-12.21-301.81,97.75c0,0-201.53-40.66-340.15,50.82c-31.83,21-13.76-12.94-13.76-12.94  s69.8-110.88,18.68-195.89S235,331,235,331s-63-48-132-120c0,0-28,94-27.8,148.36c0.2,55.78-3.93,65.6-3.93,65.6  s-91.43,171.86-22.61,390.85c0,0,13.76,30.49,55.05,25.87c0,0,120.92,39.73,271.33,8.32c0,0,152.38,24.02,276.25-1.85L900,862.01  V500z"/>
<text transform="matrix(1 0 0 1 266.3008 432.645)" class="st1 st2 st3">odysign</text>
</svg>