<svg xmlns="http://www.w3.org/2000/svg" xmlns:xlink="http://www.w3.org/1999/xlink" version="1.1" id="레이어_1" x="0px" y="0px" viewBox="0 0 900 900" style="enable-background:new 0 0 900 900;" xml:space="preserve">
<style type="text/css">
	.st0{fill:#FDAD00;}
	.st1{fill:#4A0F1C;}
	.st2{fill:#FFFFFF;}
</style>
<circle class="st0" cx="449.65" cy="449.63" r="391.62"/>
<g>
	<path class="st1" d="M392.16,180.83c29.02-18.97,57.66-16.62,81.54,0.26l0.31,0.22c52.04,36.79,42.76,90.83,4.24,145.33   l-37.66,53.27c-25.97,36.74-46.92,38.45-82.13,13.56l-149.7-105.83c-35.2-24.89-40.58-45.21-14.61-81.95l31.6-44.69   c39.6-56.02,92.37-76.11,137.98-43.86l1.84,1.3C384.55,131.84,394.99,153.45,392.16,180.83z M265.24,234.36l37.35,26.4l23.59-33.37   c14.28-20.2,8.93-37.31-1.48-44.66l-2.14-1.51c-11.02-7.79-28.32-6.7-42.6,13.5l-17.31,24.49   C257.67,226.25,257.9,229.17,265.24,234.36z M352.49,296.04l37.35,26.4c7.35,5.19,10.18,4.44,15.15-2.6l23.81-33.67   c14.28-20.2,9.54-36.87-1.48-44.66l-2.14-1.52c-11.02-7.79-28.32-6.7-42.6,13.5L352.49,296.04z"/>
</g>
<path class="st2" d="M862.06,472.78c0,0-252.06-16.51-318.17,47.98c0,0-143.3-24.49-225.44,43.69c-21.85,18.14-11.33-3.74-9.51-6.98  c0.19-0.35,0.4-0.68,0.63-1c3.78-5.49,44.65-66.9,12.16-114.49c-34.04-49.86-10.78-66.52-10.78-66.52s-49.78-25.41-95.72-67.64  c0,0-18.64,55.13-18.51,87.01c0.13,32.71-2.62,38.48-2.62,38.48s-60.87,100.8-15.05,229.24c0,0,9.16,17.88,36.65,15.17  c0,0,80.37,30.46,180.51,12.04c0,0,103,21.36,185.47,6.18l187.8,10.22L862.06,472.78z"/>
</svg>